<?xml version="1.0" encoding="utf-8"?>
<!-- Generator: Adobe Illustrator 16.0.0, SVG Export Plug-In . SVG Version: 6.00 Build 0)  -->
<!DOCTYPE svg PUBLIC "-//W3C//DTD SVG 1.1//EN" "http://www.w3.org/Graphics/SVG/1.1/DTD/svg11.dtd">
<svg version="1.1" id="图层_1" xmlns="http://www.w3.org/2000/svg" xmlns:xlink="http://www.w3.org/1999/xlink" x="0px" y="0px"
	 width="14px" height="14px" viewBox="0 0 820 820.7" style="enable-background:new 0 0 820 820.7;" xml:space="preserve">
<g>
	<g>
		<defs>
			<rect id="SVGID_1_" x="0.1" width="819.8" height="820.7"/>
		</defs>
		<clipPath id="SVGID_2_">
			<use xlink:href="#SVGID_1_"  style="overflow:visible;"/>
		</clipPath>
		<path style="clip-path:url(#SVGID_2_);fill:#4F5772;" d="M102.4,51.7c-28.3,0-51.2,22.9-51.2,51.2v614.4
			c0,28.3,22.9,51.2,51.2,51.2h614.4c28.3,0,51.2-22.9,51.2-51.2V102.9c0-28.3-22.9-51.2-51.2-51.2H102.4z M102.4,0.5h614.4
			c56.6,0,102.4,45.8,102.4,102.4v614.4c0,56.6-45.8,102.4-102.4,102.4H102.4C45.8,819.7,0,773.9,0,717.3V102.9
			C0,46.4,45.8,0.5,102.4,0.5L102.4,0.5z M102.4,0.5"/>
	</g>
	<path style="fill:#4F5772;" d="M128,256.5h568.1c14.1,0,25.6-11.5,25.6-25.6c0-14.1-11.5-25.6-25.6-25.6H128
		c-14.1,0-25.6,11.5-25.6,25.6C102.4,245.1,113.9,256.5,128,256.5L128,256.5z M204.8,205.3h144.7v51.2H204.8V205.3z M128,614.9
		h555.7c14.1,0,25.6-11.5,25.6-25.6c0-14.1-11.5-25.6-25.6-25.6H128c-14.1,0-25.6,11.5-25.6,25.6C102.4,603.5,113.9,614.9,128,614.9
		L128,614.9z M204.8,563.7h144.7v51.2H204.8V563.7z M687.1,439.9H128c-14.1,0-25.6-11.5-25.6-25.6c0-14.1,11.5-25.6,25.6-25.6h559.1
		c14.1,0,25.6,11.5,25.6,25.6C712.7,428.5,701.2,439.9,687.1,439.9L687.1,439.9z M600.6,388.7H447v51.2h153.6V388.7z M600.6,388.7"
		/>
	<path style="fill:#4F5772;" d="M256,284.2c28.3,0,51.2-22.9,51.2-51.2c0-28.3-22.9-51.2-51.2-51.2s-51.2,22.9-51.2,51.2
		C204.8,261.3,227.7,284.2,256,284.2L256,284.2z M256,335.4c-56.6,0-102.4-45.8-102.4-102.4c0-56.6,45.8-102.4,102.4-102.4
		S358.4,176.5,358.4,233C358.4,289.6,312.6,335.4,256,335.4L256,335.4z M261.2,641.3c28.3,0,51.2-22.9,51.2-51.2
		c0-28.3-22.9-51.2-51.2-51.2c-28.3,0-51.2,22.9-51.2,51.2C210,618.4,232.9,641.3,261.2,641.3L261.2,641.3z M261.2,692.5
		c-56.6,0-102.4-45.8-102.4-102.4c0-56.6,45.8-102.4,102.4-102.4c56.6,0,102.4,45.8,102.4,102.4
		C363.6,646.7,317.7,692.5,261.2,692.5L261.2,692.5z M512,457.9c28.3,0,51.2-22.9,51.2-51.2c0-28.3-22.9-51.2-51.2-51.2
		s-51.2,22.9-51.2,51.2C460.8,435,483.7,457.9,512,457.9L512,457.9z M512,509.1c-56.6,0-102.4-45.8-102.4-102.4
		c0-56.6,45.8-102.4,102.4-102.4s102.4,45.8,102.4,102.4C614.4,463.3,568.6,509.1,512,509.1L512,509.1z M512,509.1"/>
</g>
</svg>
