<?xml version="1.0" encoding="utf-8"?>
<!-- Generator: Adobe Illustrator 16.0.0, SVG Export Plug-In . SVG Version: 6.00 Build 0)  -->
<!DOCTYPE svg PUBLIC "-//W3C//DTD SVG 1.1//EN" "http://www.w3.org/Graphics/SVG/1.1/DTD/svg11.dtd">
<svg version="1.1" id="图层_1" xmlns="http://www.w3.org/2000/svg" xmlns:xlink="http://www.w3.org/1999/xlink" x="0px" y="0px"
	 width="15px" height="17px" viewBox="0 0 666 766.8" style="enable-background:new 0 0 666 766.8;" xml:space="preserve">
<g>
	<g>
		<defs>
			<rect id="SVGID_1_" x="0.1" width="665.9" height="766.8"/>
		</defs>
		<clipPath id="SVGID_2_">
			<use xlink:href="#SVGID_1_"  style="overflow:visible;"/>
		</clipPath>
		<path style="clip-path:url(#SVGID_2_);fill:#515974;" d="M384.1,765.8H281.7c-56.5,0-102.4-45.9-102.4-102.4v-44.5
			c0-35.6-21.1-89.9-45.2-116.1c-2.3-2.6-57.2-63.4-57.2-152.2c0-141.2,114.8-256,256-256c141.2,0,256,114.8,256,256
			c0,88.8-54.9,149.7-57.2,152.2c-24.1,26.2-45.2,80.5-45.2,116.1v44.5C486.5,719.9,440.6,765.8,384.1,765.8L384.1,765.8z
			 M332.9,145.8c-112.9,0-204.8,91.9-204.8,204.8c0,69.1,43.3,117.2,43.8,117.7c32.9,35.8,58.6,102,58.6,150.7v44.5
			c0,28.2,23,51.2,51.2,51.2h102.4c28.2,0,51.2-23,51.2-51.2v-44.5c0-48.7,25.8-114.8,58.6-150.7c0.4-0.4,43.8-49.3,43.8-117.7
			C537.7,237.6,445.8,145.8,332.9,145.8L332.9,145.8z M435.3,435.6c-10.7,0-20.7-6.8-24.3-17.5l-12.5-37.5L351,428.1
			c-10,10-26.2,10-36.2,0l-47.5-47.5l-12.5,37.5c-4.5,13.4-18.9,20.7-32.4,16.2c-13.4-4.5-20.7-18.9-16.2-32.4l25.6-76.8
			c2.8-8.4,9.8-14.8,18.4-16.8c8.6-2.1,17.7,0.5,24,6.8l58.7,58.7l58.7-58.7c6.2-6.3,15.3-8.8,24-6.8c8.6,2,15.6,8.4,18.4,16.8
			l25.6,76.8c4.5,13.4-2.8,27.9-16.2,32.4C440.7,435.2,438,435.6,435.3,435.6L435.3,435.6z M614.2,179.9c-7,0-14-2.8-19-8.4
			c-9.5-10.5-8.7-26.7,1.8-36.2l26-23.4c10.5-9.5,26.7-8.7,36.1,1.9c9.5,10.5,8.7,26.7-1.8,36.2l-26,23.4
			C626.5,177.7,620.4,179.9,614.2,179.9L614.2,179.9z M51.6,179.9c-6.3,0-12.4-2.3-17.1-6.6l-26-23.5c-10.5-9.5-11.3-25.7-1.9-36.2
			c9.4-10.5,25.6-11.3,36.2-1.9l26,23.5c10.5,9.5,11.3,25.7,1.9,36.2C65.8,176.8,58.8,179.9,51.6,179.9L51.6,179.9z M332.9,77.2
			c-14.1,0-25.6-11.5-25.6-25.6V26c0-14.1,11.5-25.6,25.6-25.6c14.1,0,25.6,11.5,25.6,25.6v25.6C358.5,65.7,347,77.2,332.9,77.2
			L332.9,77.2z M384.1,666H281.7c-14.1,0-25.6-11.4-25.6-25.6c0-14.2,11.5-25.6,25.6-25.6h102.4c14.2,0,25.6,11.4,25.6,25.6
			C409.7,654.6,398.3,666,384.1,666L384.1,666z M384.1,666"/>
	</g>
</g>
</svg>
