<?xml version="1.0" encoding="utf-8"?>
<!-- Generator: Adobe Illustrator 16.0.0, SVG Export Plug-In . SVG Version: 6.00 Build 0)  -->
<!DOCTYPE svg PUBLIC "-//W3C//DTD SVG 1.1//EN" "http://www.w3.org/Graphics/SVG/1.1/DTD/svg11.dtd">
<svg version="1.1" id="图层_1" xmlns="http://www.w3.org/2000/svg" xmlns:xlink="http://www.w3.org/1999/xlink" x="0px" y="0px"
	 width="14px" height="14px" viewBox="0 0 941 819.2" style="enable-background:new 0 0 941 819.2;" xml:space="preserve">
<g>
	<g>
		<path style="fill:#4F5772;" d="M833.4,819.2H725.9c-18.7,0-26.9-17.2-26.9-36c0-18.8,8.2-36,26.9-36h89.6
			c25.9,0,53.8-26.3,53.8-54V126c0-28-24.5-54-53.8-54h-708c-27.8,0-35.8,26.7-35.8,54v567.1c0,25,26.9,54,53.8,54h394.3
			c18.7,0,26.9,17.2,26.9,36c0,18.8-8.2,36-26.9,36H107.5C48.7,819.2,0,771.3,0,711.2V109.1C0,48.9,47.8,0,106.7,0l726.8,0l0.9,0
			C893.1,0,941,47.9,941,108v603.2C941,771.3,892.3,819.2,833.4,819.2L833.4,819.2z M349.5,531.1V288.1c0-36.7,23.8-51,56.1-32.6
			l212.2,120.8c32.3,18.4,32.3,48.4,0,66.8L405.6,563.8C373.3,582.2,349.5,567.9,349.5,531.1L349.5,531.1z M349.5,531.1"/>
	</g>
</g>
</svg>
