<?xml version="1.0" encoding="utf-8"?>
<!-- Generator: Adobe Illustrator 16.0.0, SVG Export Plug-In . SVG Version: 6.00 Build 0)  -->
<!DOCTYPE svg PUBLIC "-//W3C//DTD SVG 1.1//EN" "http://www.w3.org/Graphics/SVG/1.1/DTD/svg11.dtd">
<svg version="1.1" id="图层_1" xmlns="http://www.w3.org/2000/svg" xmlns:xlink="http://www.w3.org/1999/xlink" x="0px" y="0px"
	 width="14px" height="14px" viewBox="0 0 820 781.9" style="enable-background:new 0 0 820 781.9;" xml:space="preserve">
<g>
	<g>
		<defs>
			<rect id="SVGID_1_" x="0.1" width="819.8" height="781.9"/>
		</defs>
		<clipPath id="SVGID_2_">
			<use xlink:href="#SVGID_1_"  style="overflow:visible;"/>
		</clipPath>
		<path style="clip-path:url(#SVGID_2_);fill:#4F5772;" d="M811.8,313.6c-1.4-7.6-7.2-13.7-14.8-15.5c-42.3-9.6-78.6-36.5-100-74.2
			c-21.7-37.6-26.7-82.6-13.9-124.2c2.3-7.4,0-15.5-5.9-20.6c-39-34-84.2-60.2-133.1-77.3c-7.3-2.6-15.4-0.6-20.7,5.1
			c-29.2,31.9-70.5,50.1-113.8,50c-43.5,0-84-17.8-113.8-50c-5.3-5.6-13.3-7.7-20.6-5.1C226.3,19,181.1,45.2,142,79.2
			c-5.8,5.1-8.1,13.2-5.9,20.6c12.8,42.1,7.9,86.3-13.9,124.2c-21.4,37.7-57.7,64.7-100,74.2c-7.6,1.8-13.4,7.8-14.8,15.5
			C2.6,339.1,0.1,365,0,390.9C0,416,2.5,442,7.4,468.1c1.4,7.7,7.2,13.7,14.8,15.5c42.3,9.6,78.6,36.5,100,74.2
			c21.8,37.9,26.7,82,13.9,124.2c-2.3,7.4,0,15.5,5.9,20.6c39.1,34,84.2,60.2,133.1,77.3c7.3,2.6,15.4,0.5,20.7-5.1
			c29.2-31.9,70.5-50.1,113.8-50c43.5,0,83.9,17.8,113.8,50c5.3,5.7,13.4,7.7,20.7,5.2c48.9-17.1,94.1-43.3,133.1-77.3
			c5.8-5.1,8.1-13.2,5.8-20.6c-12.8-41.5-7.8-86.5,13.9-124.2c21.4-37.7,57.7-64.7,100-74.2c7.6-1.7,13.4-7.8,14.8-15.5
			c4.9-25.4,7.3-51.3,7.4-77.2C819.2,365.8,816.7,339.8,811.8,313.6L811.8,313.6z M764.2,447c-46,14-84.9,45-109,86.6
			c-23.8,41.9-31,91.2-20.2,138.1c-29,23.6-61.6,42.6-96.5,56.1c-34.7-33.2-80.9-51.6-128.9-51.5c-47.8,0-94.1,18.6-128.9,51.5
			c-34.9-13.5-67.5-32.4-96.6-56.1c23-97.2-33.5-195.6-129-224.8c-3-18.5-4.5-37.3-4.5-56c0-18.3,1.5-37.1,4.5-56.1
			c46-14,84.9-45,108.9-86.6c23.9-41.8,31.1-91.2,20.2-138.1c29-23.6,61.6-42.5,96.6-56c34.9,32.9,80.9,51.3,128.9,51.4
			c48.5,0,93.8-18.2,128.9-51.5c34.9,13.5,67.5,32.4,96.6,56.1c-10.9,46.9-3.7,96.2,20.1,138.1c24,41.6,62.9,72.6,108.9,86.6
			c3,19,4.5,37.8,4.5,56.1S767.1,427.9,764.2,447L764.2,447z M764.2,447"/>
	</g>
	<path style="fill:#4F5772;" d="M409.6,493.3c56.6,0,102.4-45.8,102.4-102.4s-45.8-102.4-102.4-102.4
		c-56.6,0-102.4,45.8-102.4,102.4S353,493.3,409.6,493.3L409.6,493.3z M409.6,544.5c-84.8,0-153.6-68.8-153.6-153.6
		c0-84.8,68.8-153.6,153.6-153.6c84.8,0,153.6,68.8,153.6,153.6C563.2,475.7,494.4,544.5,409.6,544.5L409.6,544.5z M409.6,544.5"/>
</g>
</svg>
