<?xml version="1.0" encoding="utf-8"?>
<!-- Generator: Adobe Illustrator 16.0.0, SVG Export Plug-In . SVG Version: 6.00 Build 0)  -->
<!DOCTYPE svg PUBLIC "-//W3C//DTD SVG 1.1//EN" "http://www.w3.org/Graphics/SVG/1.1/DTD/svg11.dtd">
<svg version="1.1" id="图层_1" xmlns="http://www.w3.org/2000/svg" xmlns:xlink="http://www.w3.org/1999/xlink" x="0px" y="0px"
	 width="14px" height="14px" viewBox="0 0 656 656.9" style="enable-background:new 0 0 656 656.9;" xml:space="preserve">
<g>
	<g>
		<defs>
			<rect id="SVGID_1_" x="0.1" width="655.9" height="656.9"/>
		</defs>
		<clipPath id="SVGID_2_">
			<use xlink:href="#SVGID_1_"  style="overflow:visible;"/>
		</clipPath>
		<path style="clip-path:url(#SVGID_2_);fill:#4F5772;" d="M622.6,361c18.1,0,32.8-14.7,32.8-32.8V82.5c0-45.1-36.9-81.9-81.9-81.9
			H81.9C36.9,0.6,0,37.4,0,82.5V574c0,45.1,36.9,81.9,81.9,81.9h491.5c45.1,0,81.9-36.9,81.9-81.9V426.5c0-18.1-14.7-32.8-32.8-32.8
			c-18.1,0-32.8,14.7-32.8,32.8v122.9c0,22.5-18.4,41-41,41H106.5c-22.5,0-41-18.4-41-41V107.1c0-22.5,18.4-41,41-41h442.4
			c22.5,0,41,18.4,41,41v221.2C589.8,346.3,604.5,361,622.6,361L622.6,361z M622.6,361"/>
	</g>
	<path style="fill:#4F5772;" d="M213,366.8c0-16.8-13.6-30.4-30.4-30.4h-4.7c-16.8,0-30.4,13.6-30.4,30.4v70.3
		c0,16.8,13.6,30.4,30.4,30.4h4.7c16.8,0,30.4-13.6,30.4-30.4V366.8z M213,366.8"/>
	<path style="fill:#4F5772;" d="M360.4,299.4c0-18-14.6-32.6-32.6-32.6h-0.3c-18,0-32.6,14.6-32.6,32.6v135.4
		c0,18,14.6,32.6,32.6,32.6h0.3c18,0,32.6-14.6,32.6-32.6V299.4z M360.4,299.4"/>
	<path style="fill:#4F5772;" d="M442.4,196.3v238.4c0,18,14.7,32.8,32.8,32.8s32.8-14.7,32.8-32.8V196.3c0-18-14.7-32.8-32.8-32.8
		S442.4,178.3,442.4,196.3L442.4,196.3z M442.4,196.3"/>
</g>
</svg>
